<!DOCTYPE svg PUBLIC "-//W3C//DTD SVG 20010904//EN" "http://www.w3.org/TR/2001/REC-SVG-20010904/DTD/svg10.dtd">
<svg version="1.0" xmlns="http://www.w3.org/2000/svg" width="200px" height="200px" viewBox="0 0 2000 2000" preserveAspectRatio="xMidYMid meet">
<g id="layer101" fill="#01233f" stroke="none">
 <path d="M1327 1878 c-8 -12 -114 -204 -234 -424 l-220 -401 -107 -459 c-59 -253 -110 -468 -113 -479 -4 -14 -2 -17 5 -10 11 10 430 769 459 829 15 33 234 958 228 964 -2 2 -10 -7 -18 -20z m-237 -675 l-38 -122 18 -36 c28 -56 5 -107 -55 -123 -22 -6 -35 -27 -77 -120 -29 -61 -54 -110 -56 -107 -2 2 13 54 33 116 36 107 37 113 21 139 -34 58 -8 124 53 136 25 5 34 20 81 125 29 66 54 118 56 117 2 -2 -14 -58 -36 -125z"/>
 <path d="M812 1875 c-257 -56 -477 -225 -599 -460 -146 -283 -129 -631 44 -892 77 -116 219 -246 330 -302 l42 -21 10 38 c17 61 14 68 -51 109 -191 121 -314 304 -359 531 -17 88 -6 257 22 347 100 321 375 541 705 562 77 5 184 -5 244 -22 14 -4 60 60 60 84 0 35 -318 54 -448 26z"/>
 <path d="M1360 1759 c-7 -27 -11 -51 -9 -53 2 -1 22 -13 44 -26 163 -96 286 -249 350 -435 23 -65 29 -103 32 -200 10 -244 -58 -416 -232 -590 -96 -96 -186 -152 -312 -194 -115 -38 -271 -44 -409 -15 -29 6 -34 3 -57 -37 -14 -23 -24 -46 -21 -50 2 -4 47 -15 100 -25 453 -81 892 200 1016 651 31 114 31 326 1 440 -54 201 -171 376 -331 493 -57 43 -141 92 -156 92 -2 0 -9 -23 -16 -51z"/>
 <path d="M870 1753 c-233 -41 -458 -212 -555 -425 -64 -141 -85 -343 -50 -493 34 -146 137 -312 254 -409 83 -69 151 -100 151 -68 0 4 -15 16 -32 26 -116 67 -220 182 -283 311 -102 208 -101 422 3 635 39 80 60 109 132 180 98 98 164 140 287 183 83 29 96 31 218 30 72 -1 145 -3 164 -5 58 -5 46 18 -15 31 -55 10 -221 13 -274 4z"/>
 <path d="M997 1690 c-8 -20 -76 -444 -72 -448 2 -2 28 41 59 96 38 69 56 111 55 133 -1 55 -36 235 -42 219z"/>
 <path d="M1340 1661 c0 -12 16 -29 44 -45 92 -54 204 -174 255 -273 56 -111 81 -215 81 -342 0 -272 -162 -525 -415 -646 -124 -60 -256 -79 -422 -61 -61 7 -73 6 -73 -7 0 -30 194 -44 315 -23 304 52 541 274 611 572 20 85 22 249 4 329 -44 194 -170 375 -337 482 -61 39 -63 39 -63 14z"/>
 <path d="M650 1354 c0 -4 38 -60 85 -125 47 -64 85 -121 85 -126 0 -5 -109 -26 -242 -47 -134 -21 -247 -42 -251 -46 -9 -8 14 -13 302 -59 l171 -28 6 26 c19 86 29 113 59 172 l34 65 -111 80 c-130 92 -138 97 -138 88z"/>
 <path d="M1298 1327 c-39 -27 -49 -40 -58 -80 -7 -26 -10 -50 -7 -53 3 -3 31 31 62 76 31 45 55 83 53 85 -2 2 -25 -10 -50 -28z"/>
 <path d="M1185 1019 c-8 -39 -29 -97 -45 -130 -17 -32 -30 -60 -30 -63 0 -2 54 -43 120 -90 66 -47 120 -82 120 -77 0 4 -40 64 -89 132 -49 68 -88 125 -87 126 1 1 118 21 261 44 172 28 252 45 240 50 -15 6 -448 79 -469 79 -3 0 -12 -32 -21 -71z"/>
 <path d="M712 755 c-73 -103 -75 -116 -12 -68 30 21 57 50 60 64 27 102 22 103 -48 4z"/>
 <path d="M1052 728 c-10 -18 -36 -64 -57 -101 l-37 -68 16 -112 c10 -62 20 -119 23 -127 3 -8 22 86 43 210 21 124 36 226 35 228 -2 2 -12 -12 -23 -30z"/>
 </g>

</svg>